<svg display="none" xmlns="http://www.w3.org/2000/svg">

    <symbol width="100" height="100" viewBox="0 0 100 100" id="dice_1">
        <rect width="100" height="100" rx="20" fill="#98BC7A" />
        <circle cx="49.5" cy="49.5" r="7.5" fill="white" />
    </symbol>

    <symbol width="100" height="100" viewBox="0 0 100 100" id="dice_2">
        <rect width="100" height="100" rx="20" fill="#98BC7A" />
        <circle cx="27.5" cy="27.5" r="7.5" fill="white" />
        <circle cx="72.5" cy="72.5" r="7.5" fill="white" />
    </symbol>

    <symbol width="100" height="100" viewBox="0 0 100 100" id="dice_3">
        <rect width="100" height="100" rx="20" fill="#98BC7A" />
        <circle cx="22.5" cy="22.5" r="7.5" fill="white" />
        <circle cx="49.5" cy="49.5" r="7.5" fill="white" />
        <circle cx="77.5" cy="77.5" r="7.5" fill="white" />
    </symbol>

    <symbol width="100" height="100" viewBox="0 0 100 100" id="dice_4">
        <rect width="100" height="100" rx="20" fill="#98BC7A" />
        <circle cx="72.5" cy="27.5" r="7.5" fill="white" />
        <circle cx="27.5" cy="27.5" r="7.5" fill="white" />
        <circle cx="72.5" cy="72.5" r="7.5" fill="white" />
        <circle cx="27.5" cy="72.5" r="7.5" fill="white" />
    </symbol>

    <symbol width="100" height="100" viewBox="0 0 100 100" id="dice_5">
        <rect width="100" height="100" rx="20" fill="#98BC7A" />
        <circle cx="49.5" cy="49.5" r="7.5" fill="white" />
        <circle cx="72.5" cy="27.5" r="7.5" fill="white" />
        <circle cx="27.5" cy="27.5" r="7.5" fill="white" />
        <circle cx="72.5" cy="72.5" r="7.5" fill="white" />
        <circle cx="27.5" cy="72.5" r="7.5" fill="white" />
    </symbol>

    <symbol width="100" height="100" viewBox="0 0 100 100" id="dice_6">
        <rect width="100" height="100" rx="20" fill="#98BC7A" />
        <circle cx="27.5" cy="27.5" r="7.5" fill="white" />
        <circle cx="27.5" cy="72.5" r="7.5" fill="white" />
        <circle cx="27.5" cy="49.5" r="7.5" fill="white" />
        <circle cx="72.5" cy="27.5" r="7.5" fill="white" />
        <circle cx="72.5" cy="72.5" r="7.5" fill="white" />
        <circle cx="72.5" cy="49.5" r="7.5" fill="white" />
    </symbol>

</svg>